<svg xmlns="http://www.w3.org/2000/svg" viewBox="0 0 300 300" width="300" height="300">
  <rect width="300" height="300" fill="#0c1821"/>
  <rect x="40" y="90" width="130" height="30" rx="5" fill="#1b3a4b" stroke="#0077b6" stroke-width="1.5"/>
  <rect x="45" y="95" width="120" height="20" rx="3" fill="#0077b6" opacity="0.3"/>
  <text x="105" y="109" text-anchor="middle" fill="#90e0ef" font-size="9" font-family="Arial">USB-C Kablo</text>
  <path d="M 170 105 L 230 105" stroke="#0077b6" stroke-width="4" stroke-linecap="round"/>
  <rect x="228" y="98" width="16" height="14" rx="3" fill="#0077b6"/>
  <rect x="240" y="101" width="8" height="8" rx="1" fill="#90e0ef"/>
  <rect x="40" y="150" width="130" height="30" rx="5" fill="#1b3a4b" stroke="#0077b6" stroke-width="1.5"/>
  <rect x="45" y="155" width="120" height="20" rx="3" fill="#0077b6" opacity="0.3"/>
  <text x="105" y="169" text-anchor="middle" fill="#90e0ef" font-size="9" font-family="Arial">Lightning Kablo</text>
  <path d="M 170 165 L 230 165" stroke="#023e8a" stroke-width="4" stroke-linecap="round"/>
  <rect x="228" y="158" width="16" height="14" rx="3" fill="#023e8a"/>
  <rect x="40" y="210" width="130" height="30" rx="5" fill="#1b3a4b" stroke="#0077b6" stroke-width="1.5"/>
  <text x="105" y="229" text-anchor="middle" fill="#90e0ef" font-size="9" font-family="Arial">Micro USB Kablo</text>
  <text x="150" y="275" text-anchor="middle" fill="#90e0ef" font-size="11" font-family="Arial">Şarj Kabloları</text>
  <text x="150" y="290" text-anchor="middle" fill="#0077b6" font-size="10" font-family="Arial">Tüm Modeller</text>
</svg>